<svg width="14" height="14" viewBox="0 0 14 14" fill="none" xmlns="http://www.w3.org/2000/svg">
<path d="M2.56666 10.0667C3.13333 9.6333 3.76666 9.2916 4.46666 9.0413C5.16666 8.7916 5.9 8.6667 6.66666 8.6667C7.43333 8.6667 8.16666 8.7916 8.8667 9.0413C9.5667 9.2916 10.2 9.6333 10.7667 10.0667C11.1556 9.6111 11.4584 9.0944 11.6753 8.51666C11.8918 7.93888 12 7.32222 12 6.66666C12 5.18888 11.4807 3.93044 10.442 2.89133C9.4029 1.85266 8.14444 1.33333 6.66666 1.33333C5.18888 1.33333 3.93066 1.85266 2.892 2.89133C1.85288 3.93044 1.33333 5.18888 1.33333 6.66666C1.33333 7.32222 1.44177 7.93888 1.65866 8.51666C1.87511 9.0944 2.17777 9.6111 2.56666 10.0667ZM6.66666 7.33333C6.01111 7.33333 5.45822 7.10844 5.008 6.65866C4.55822 6.20844 4.33333 5.65555 4.33333 5C4.33333 4.34444 4.55822 3.79155 5.008 3.34133C5.45822 2.89155 6.01111 2.66666 6.66666 2.66666C7.32222 2.66666 7.87511 2.89155 8.32533 3.34133C8.7751 3.79155 9 4.34444 9 5C9 5.65555 8.7751 6.20844 8.32533 6.65866C7.87511 7.10844 7.32222 7.33333 6.66666 7.33333ZM6.66666 13.3333C5.74444 13.3333 4.87777 13.1582 4.06666 12.808C3.25555 12.4582 2.55 11.9833 1.95 11.3833C1.35 10.7833 0.87511 10.0778 0.52533 9.2667C0.17511 8.45555 0 7.58888 0 6.66666C0 5.74444 0.17511 4.87777 0.52533 4.06666C0.87511 3.25555 1.35 2.55 1.95 1.95C2.55 1.35 3.25555 0.87488 4.06666 0.52466C4.87777 0.17488 5.74444 0 6.66666 0C7.58888 0 8.45555 0.17488 9.2667 0.52466C10.0778 0.87488 10.7833 1.35 11.3833 1.95C11.9833 2.55 12.4582 3.25555 12.808 4.06666C13.1582 4.87777 13.3333 5.74444 13.3333 6.66666C13.3333 7.58888 13.1582 8.45555 12.808 9.2667C12.4582 10.0778 11.9833 10.7833 11.3833 11.3833C10.7833 11.9833 10.0778 12.4582 9.2667 12.808C8.45555 13.1582 7.58888 13.3333 6.66666 13.3333ZM6.66666 12C7.25555 12 7.81111 11.914 8.33333 11.742C8.8556 11.5696 9.3333 11.3222 9.7667 11C9.3333 10.6778 8.8556 10.4304 8.33333 10.258C7.81111 10.086 7.25555 10 6.66666 10C6.07777 10 5.52222 10.086 5 10.258C4.47777 10.4304 4 10.6778 3.56666 11C4 11.3222 4.47777 11.5696 5 11.742C5.52222 11.914 6.07777 12 6.66666 12ZM6.66666 6C6.95555 6 7.19444 5.90555 7.38333 5.71666C7.57222 5.52777 7.66666 5.28888 7.66666 5C7.66666 4.71111 7.57222 4.47222 7.38333 4.28333C7.19444 4.09444 6.95555 4 6.66666 4C6.37777 4 6.13888 4.09444 5.95 4.28333C5.76111 4.47222 5.66666 4.71111 5.66666 5C5.66666 5.28888 5.76111 5.52777 5.95 5.71666C6.13888 5.90555 6.37777 6 6.66666 6Z" fill="#AB7F6C"/>
</svg>
