<svg width="53" height="56" viewBox="0 0 53 56" fill="none" xmlns="http://www.w3.org/2000/svg">
<path d="M25.5909 22.3594C25.3622 21.5644 25.041 20.862 24.6271 20.2521C24.2133 19.6314 23.7069 19.1087 23.108 18.6839C22.5199 18.2483 21.8447 17.9162 21.0824 17.6875C20.331 17.4588 19.4979 17.3445 18.5831 17.3445C16.8733 17.3445 15.3705 17.7692 14.0746 18.6186C12.7895 19.468 11.7876 20.7041 11.0689 22.3267C10.3501 23.9384 9.99077 25.9096 9.99077 28.2401C9.99077 30.5705 10.3447 32.5526 11.0526 34.1861C11.7604 35.8196 12.7623 37.0665 14.0582 37.9268C15.3542 38.7763 16.8842 39.201 18.6484 39.201C20.2493 39.201 21.616 38.9179 22.7486 38.3516C23.892 37.7744 24.7633 36.9631 25.3622 35.9176C25.9721 34.8722 26.277 33.6361 26.277 32.2095L27.7145 32.4219H19.0895V27.0966H33.0888V31.3111C33.0888 34.2514 32.468 36.7779 31.2266 38.8906C29.9851 40.9924 28.2753 42.6151 26.0973 43.7585C23.9193 44.8911 21.4254 45.4574 18.6158 45.4574C15.4794 45.4574 12.7242 44.7659 10.3501 43.3828C7.97609 41.9889 6.12476 40.0123 4.79616 37.4531C3.47846 34.883 2.8196 31.8338 2.8196 28.3054C2.8196 25.5937 3.21165 23.1761 3.99574 21.0526C4.79072 18.9181 5.90152 17.1103 7.32812 15.6293C8.75473 14.1482 10.4155 13.0211 12.3104 12.2479C14.2053 11.4747 16.258 11.0881 18.4688 11.0881C20.3636 11.0881 22.1278 11.3658 23.7614 11.9212C25.3949 12.4657 26.8433 13.2389 28.1065 14.2408C29.3807 15.2427 30.4207 16.4351 31.2266 17.8182C32.0324 19.1903 32.5497 20.7041 32.7784 22.3594H25.5909Z" fill="black"/>
<path d="M41.8491 21.1669C41.7184 19.8492 41.1576 18.8255 40.1665 18.0959C39.1755 17.3662 37.8306 17.0014 36.1317 17.0014C34.9774 17.0014 34.0027 17.1648 33.2077 17.4915C32.4128 17.8073 31.8029 18.2483 31.3782 18.8146C30.9644 19.3809 30.7575 20.0234 30.7575 20.7422C30.7357 21.3411 30.8609 21.8639 31.1332 22.3104C31.4163 22.7569 31.8029 23.1435 32.293 23.4702C32.783 23.786 33.3493 24.0637 33.9918 24.3033C34.6344 24.532 35.3204 24.728 36.0501 24.8913L39.0558 25.6101C40.515 25.9368 41.8545 26.3724 43.0742 26.9169C44.2939 27.4614 45.3503 28.1312 46.2433 28.9261C47.1362 29.7211 47.8278 30.6577 48.3178 31.7358C48.8188 32.8139 49.0747 34.05 49.0856 35.4439C49.0747 37.4912 48.552 39.2663 47.5174 40.7692C46.4937 42.2611 45.0127 43.4209 43.0742 44.2486C41.1467 45.0653 38.8216 45.4737 36.0991 45.4737C33.3983 45.4737 31.046 45.0599 29.0423 44.2322C27.0494 43.4046 25.4921 42.1795 24.3704 40.5568C23.2596 38.9233 22.677 36.9032 22.6225 34.4964H29.467C29.5432 35.6181 29.8645 36.5547 30.4308 37.3061C31.0079 38.0466 31.7757 38.6075 32.734 38.9886C33.7032 39.3589 34.7977 39.544 36.0174 39.544C37.2153 39.544 38.2553 39.3698 39.1374 39.0213C40.0304 38.6728 40.7219 38.1882 41.212 37.5675C41.7021 36.9467 41.9471 36.2334 41.9471 35.4276C41.9471 34.6761 41.7238 34.0445 41.2773 33.5327C40.8417 33.0208 40.1992 32.5852 39.3498 32.2259C38.5112 31.8665 37.4821 31.5398 36.2624 31.2457L32.6197 30.331C29.7991 29.6449 27.5721 28.5722 25.9386 27.1129C24.305 25.6536 23.4937 23.688 23.5046 21.2159C23.4937 19.1903 24.0328 17.4207 25.1218 15.907C26.2217 14.3932 27.73 13.2116 29.6467 12.3622C31.5633 11.5128 33.7414 11.0881 36.1808 11.0881C38.6637 11.0881 40.8308 11.5128 42.6822 12.3622C44.5444 13.2116 45.9928 14.3932 47.0273 15.907C48.0619 17.4207 48.5955 19.174 48.6282 21.1669H41.8491Z" fill="#191818"/>
<path d="M48.8145 13.5243L25.5001 52.0788" stroke="white" stroke-width="4"/>
<path d="M38.8145 10L15.5001 48.5545" stroke="white" stroke-width="4"/>
</svg>
