<svg width="136" height="147" viewBox="0 0 136 147" fill="none" xmlns="http://www.w3.org/2000/svg">
<path d="M65.6224 57.786C65.0243 55.7069 64.1841 53.8698 63.1017 52.2748C62.0194 50.6513 60.695 49.2842 59.1285 48.1734C57.5905 47.0341 55.8246 46.1654 53.8309 45.5673C51.8656 44.9692 49.6867 44.6701 47.2943 44.6701C42.8226 44.6701 38.8921 45.7809 35.5027 48.0025C32.1419 50.2241 29.5215 53.4568 27.6417 57.7006C25.7619 61.9159 24.822 67.0712 24.822 73.1663C24.822 79.2614 25.7477 84.4451 27.599 88.7174C29.4503 92.9897 32.0707 96.2509 35.46 98.501C38.8494 100.723 42.8511 101.833 47.4652 101.833C51.652 101.833 55.2265 101.093 58.1886 99.6118C61.1792 98.1022 63.4578 95.9803 65.0243 93.2461C66.6193 90.5118 67.4167 87.2791 67.4167 83.548L71.1764 84.1034H48.6187V70.1757H85.2322V81.1982C85.2322 88.8883 83.6087 95.4961 80.3618 101.022C77.1149 106.519 72.6432 110.762 66.9468 113.753C61.2504 116.715 54.728 118.196 47.3797 118.196C39.1769 118.196 31.971 116.388 25.7619 112.77C19.5529 109.125 14.7109 103.955 11.2361 97.262C7.78981 90.5403 6.06665 82.5653 6.06665 73.3372C6.06665 66.2452 7.092 59.9222 9.1427 54.3682C11.2219 48.7858 14.127 44.0578 17.8582 40.1842C21.5893 36.3107 25.9328 33.3628 30.8887 31.3406C35.8445 29.3183 41.2134 28.3072 46.9952 28.3072C51.9511 28.3072 56.5651 29.0335 60.8374 30.4861C65.1097 31.9102 68.8978 33.9324 72.2017 36.5528C75.5341 39.1731 78.2541 42.2919 80.3618 45.9091C82.4695 49.4978 83.8223 53.4568 84.4205 57.786H65.6224Z" fill="black"/>
<path d="M108.144 54.6673C107.802 51.221 106.335 48.5437 103.743 46.6354C101.151 44.7271 97.6339 43.7729 93.1908 43.7729C90.1717 43.7729 87.6225 44.2002 85.5434 45.0546C83.4642 45.8806 81.8692 47.0341 80.7584 48.5152C79.6761 49.9962 79.1349 51.6767 79.1349 53.5565C79.078 55.123 79.4055 56.4901 80.1176 57.6579C80.8581 58.8256 81.8692 59.8367 83.1509 60.6912C84.4326 61.5172 85.9136 62.2435 87.5941 62.8701C89.2745 63.4682 91.0689 63.9809 92.9772 64.4081L100.838 66.2879C104.655 67.1424 108.158 68.2816 111.348 69.7057C114.538 71.1298 117.301 72.8815 119.636 74.9607C121.972 77.0398 123.78 79.4893 125.062 82.309C126.372 85.1287 127.042 88.3614 127.07 92.0071C127.042 97.3617 125.674 102.004 122.969 105.935C120.291 109.837 116.418 112.87 111.348 115.035C106.307 117.171 100.226 118.239 93.1053 118.239C86.0418 118.239 79.8897 117.157 74.649 114.992C69.4368 112.827 65.3639 109.623 62.4303 105.379C59.5251 101.107 58.0013 95.8237 57.8589 89.5292H75.7598C75.9592 92.4628 76.7994 94.9123 78.2805 96.8775C79.79 98.8143 81.798 100.281 84.3044 101.278C86.8393 102.246 89.7017 102.731 92.8917 102.731C96.0247 102.731 98.7447 102.275 101.052 101.363C103.387 100.452 105.196 99.1845 106.478 97.5611C107.759 95.9376 108.4 94.072 108.4 91.9644C108.4 89.9991 107.816 88.3472 106.648 87.0085C105.509 85.6699 103.829 84.5306 101.607 83.5907C99.4141 82.6508 96.7225 81.7963 93.5326 81.0273L84.0053 78.6348C76.6285 76.8405 70.804 74.035 66.5317 70.2184C62.2594 66.4018 60.1375 61.2608 60.166 54.7954C60.1375 49.4978 61.5473 44.8695 64.3955 40.9105C67.2722 36.9515 71.217 33.8612 76.2298 31.6396C81.2426 29.418 86.939 28.3072 93.3189 28.3072C99.8128 28.3072 105.481 29.418 110.323 31.6396C115.193 33.8612 118.981 36.9515 121.687 40.9105C124.393 44.8695 125.788 49.4551 125.874 54.6673H108.144Z" fill="black"/>
<path d="M126.361 35.3712L65.3846 136.206" stroke="#FFFBF9" stroke-width="10.4615"/>
<path d="M100.207 26.1538L39.2307 126.989" stroke="#FFFBF9" stroke-width="10.4615"/>
</svg>
